<svg xmlns="http://www.w3.org/2000/svg" viewBox="0 0 1600 900">
  <rect x="0" y="0" width="1600" height="70" fill="#111" opacity="0.9"/>
  <rect x="0" y="830" width="1600" height="70" fill="#111" opacity="0.9"/>
  <g fill="#d9d9d9">
    <rect x="35" y="18" width="38" height="32" rx="4"/>
    <rect x="112" y="18" width="38" height="32" rx="4"/>
    <rect x="189" y="18" width="38" height="32" rx="4"/>
    <rect x="266" y="18" width="38" height="32" rx="4"/>
    <rect x="343" y="18" width="38" height="32" rx="4"/>
    <rect x="420" y="18" width="38" height="32" rx="4"/>
    <rect x="497" y="18" width="38" height="32" rx="4"/>
    <rect x="574" y="18" width="38" height="32" rx="4"/>
    <rect x="651" y="18" width="38" height="32" rx="4"/>
    <rect x="728" y="18" width="38" height="32" rx="4"/>
    <rect x="805" y="18" width="38" height="32" rx="4"/>
    <rect x="882" y="18" width="38" height="32" rx="4"/>
    <rect x="959" y="18" width="38" height="32" rx="4"/>
    <rect x="1036" y="18" width="38" height="32" rx="4"/>
    <rect x="1113" y="18" width="38" height="32" rx="4"/>
    <rect x="1190" y="18" width="38" height="32" rx="4"/>
    <rect x="1267" y="18" width="38" height="32" rx="4"/>
    <rect x="1344" y="18" width="38" height="32" rx="4"/>
    <rect x="1421" y="18" width="38" height="32" rx="4"/>
    <rect x="1498" y="18" width="38" height="32" rx="4"/>
    <rect x="35" y="850" width="38" height="32" rx="4"/>
    <rect x="112" y="850" width="38" height="32" rx="4"/>
    <rect x="189" y="850" width="38" height="32" rx="4"/>
    <rect x="266" y="850" width="38" height="32" rx="4"/>
    <rect x="343" y="850" width="38" height="32" rx="4"/>
    <rect x="420" y="850" width="38" height="32" rx="4"/>
    <rect x="497" y="850" width="38" height="32" rx="4"/>
    <rect x="574" y="850" width="38" height="32" rx="4"/>
    <rect x="651" y="850" width="38" height="32" rx="4"/>
    <rect x="728" y="850" width="38" height="32" rx="4"/>
    <rect x="805" y="850" width="38" height="32" rx="4"/>
    <rect x="882" y="850" width="38" height="32" rx="4"/>
    <rect x="959" y="850" width="38" height="32" rx="4"/>
    <rect x="1036" y="850" width="38" height="32" rx="4"/>
    <rect x="1113" y="850" width="38" height="32" rx="4"/>
    <rect x="1190" y="850" width="38" height="32" rx="4"/>
    <rect x="1267" y="850" width="38" height="32" rx="4"/>
    <rect x="1344" y="850" width="38" height="32" rx="4"/>
    <rect x="1421" y="850" width="38" height="32" rx="4"/>
    <rect x="1498" y="850" width="38" height="32" rx="4"/>
  </g>
</svg>
